<?xml version="1.0" standalone="no"?>
<!DOCTYPE svg PUBLIC "-//W3C//DTD SVG 20010904//EN"
 "http://www.w3.org/TR/2001/REC-SVG-20010904/DTD/svg10.dtd">
<svg version="1.0" xmlns="http://www.w3.org/2000/svg"
 width="2159.000000pt" height="2159.000000pt" viewBox="0 0 2159.000000 2159.000000"
 preserveAspectRatio="xMidYMid meet">

<g transform="translate(0.000000,2159.000000) scale(0.100000,-0.100000)"
fill="#000000" stroke="none">
<path d="M10630 21404 c-19 -2 -154 -9 -300 -15 -416 -17 -639 -33 -870 -64
-143 -19 -204 -27 -280 -40 -47 -8 -119 -19 -160 -25 -41 -7 -104 -18 -140
-25 -36 -7 -92 -19 -125 -25 -80 -16 -139 -28 -205 -45 -30 -7 -82 -19 -115
-25 -33 -6 -82 -18 -109 -26 -26 -8 -57 -14 -67 -14 -10 0 -21 -4 -24 -10 -3
-5 -21 -10 -40 -10 -19 0 -44 -4 -57 -9 -13 -4 -48 -15 -78 -24 -30 -8 -104
-30 -165 -47 -135 -39 -169 -48 -220 -61 -22 -6 -44 -14 -49 -20 -6 -5 -20 -9
-32 -9 -13 0 -26 -4 -29 -10 -3 -5 -17 -10 -29 -10 -21 0 -43 -7 -121 -39 -11
-5 -38 -14 -60 -20 -22 -7 -53 -18 -70 -26 -16 -7 -48 -18 -70 -25 -44 -13
-160 -57 -187 -71 -10 -5 -22 -9 -28 -9 -6 0 -33 -11 -62 -25 -28 -14 -58 -25
-65 -25 -7 0 -21 -4 -31 -10 -9 -5 -33 -15 -52 -23 -19 -8 -57 -25 -85 -37
-54 -24 -108 -47 -140 -60 -109 -45 -98 -40 -330 -150 -71 -33 -148 -70 -170
-81 -79 -41 -251 -131 -300 -158 -27 -15 -86 -47 -130 -71 -44 -24 -89 -48
-100 -54 -11 -6 -34 -21 -52 -33 -17 -13 -34 -23 -37 -23 -4 0 -25 -12 -47
-26 -23 -14 -62 -37 -87 -51 -25 -14 -55 -34 -66 -44 -11 -11 -24 -19 -29 -19
-4 0 -23 -11 -41 -25 -18 -14 -36 -25 -40 -25 -4 0 -22 -11 -40 -25 -18 -14
-38 -25 -44 -25 -6 0 -12 -3 -14 -8 -1 -4 -28 -23 -58 -42 -30 -19 -71 -47
-90 -62 -19 -15 -38 -28 -42 -28 -8 0 -231 -156 -288 -202 -19 -15 -102 -78
-185 -139 -128 -95 -236 -180 -255 -199 -3 -3 -26 -22 -52 -43 -26 -21 -53
-43 -60 -50 -7 -7 -26 -22 -42 -35 -15 -12 -50 -41 -76 -64 -26 -24 -80 -72
-121 -108 -147 -129 -198 -179 -454 -435 -276 -276 -441 -456 -645 -700 -41
-50 -77 -92 -80 -95 -3 -3 -21 -25 -40 -50 -19 -25 -37 -47 -40 -50 -3 -3 -18
-23 -35 -45 -16 -22 -32 -42 -35 -45 -3 -3 -23 -30 -45 -60 -22 -30 -50 -66
-62 -80 -13 -14 -23 -30 -23 -37 0 -7 -4 -13 -8 -13 -4 0 -37 -41 -73 -92 -35
-50 -68 -96 -74 -102 -11 -13 -165 -237 -180 -263 -5 -10 -24 -38 -41 -63 -37
-54 -197 -309 -207 -330 -4 -8 -18 -33 -32 -55 -14 -22 -30 -49 -35 -60 -6
-11 -18 -33 -28 -50 -10 -16 -31 -52 -46 -80 -16 -27 -32 -54 -36 -60 -27 -36
-311 -593 -369 -725 -18 -41 -43 -97 -57 -125 -13 -27 -24 -55 -24 -62 0 -6
-9 -27 -19 -45 -11 -18 -38 -80 -61 -138 -23 -58 -53 -129 -66 -158 -13 -29
-24 -59 -24 -67 0 -7 -5 -17 -10 -20 -6 -3 -10 -13 -10 -22 0 -14 -20 -66 -41
-105 -5 -10 -9 -26 -9 -37 0 -11 -8 -34 -17 -53 -31 -62 -33 -68 -33 -91 0
-13 -4 -27 -9 -32 -4 -6 -15 -32 -24 -60 -9 -27 -26 -77 -37 -110 -42 -121
-84 -257 -115 -370 -9 -33 -20 -71 -25 -85 -4 -14 -12 -43 -18 -65 -6 -22 -18
-69 -27 -105 -9 -36 -21 -75 -26 -88 -5 -13 -9 -32 -9 -43 0 -11 -11 -59 -24
-107 -13 -48 -29 -114 -35 -147 -7 -33 -17 -80 -23 -105 -11 -45 -20 -91 -37
-185 -35 -187 -43 -237 -52 -295 -6 -36 -13 -81 -15 -100 -2 -19 -11 -75 -19
-125 -27 -172 -35 -236 -35 -286 0 -29 -6 -93 -14 -143 -31 -194 -36 -360 -36
-1066 0 -713 9 -949 39 -1050 6 -19 11 -71 11 -115 0 -85 15 -214 32 -280 5
-21 14 -75 19 -120 5 -44 14 -107 19 -140 5 -33 13 -88 18 -121 5 -34 14 -84
20 -110 6 -27 16 -76 22 -109 6 -33 16 -80 22 -105 12 -50 25 -112 37 -180 5
-25 16 -72 26 -105 9 -33 21 -80 25 -105 12 -64 25 -112 38 -137 7 -12 12 -37
12 -57 0 -19 4 -38 10 -41 5 -3 10 -19 10 -35 0 -16 4 -31 9 -35 6 -3 13 -26
17 -50 3 -25 10 -48 15 -51 5 -3 9 -18 9 -34 0 -16 5 -32 10 -35 6 -3 10 -18
10 -33 0 -15 7 -40 15 -56 8 -15 15 -37 15 -47 0 -10 5 -21 10 -24 6 -3 10
-17 10 -30 0 -22 16 -68 41 -117 5 -10 9 -27 9 -38 0 -11 4 -28 9 -38 23 -46
41 -95 41 -112 0 -10 4 -22 10 -25 5 -3 10 -16 10 -28 0 -12 7 -31 15 -41 8
-11 15 -28 15 -38 0 -10 4 -26 9 -36 16 -29 38 -85 51 -127 13 -40 21 -61 45
-120 7 -16 18 -43 25 -60 7 -16 18 -43 25 -60 7 -16 17 -41 23 -55 5 -14 20
-47 32 -75 12 -27 29 -66 37 -85 18 -41 55 -124 88 -195 23 -50 169 -347 184
-375 5 -8 22 -42 37 -75 16 -33 32 -61 37 -63 4 -2 7 -12 7 -22 0 -10 4 -22
10 -25 5 -3 17 -23 27 -43 15 -32 41 -78 90 -157 7 -11 20 -36 30 -55 9 -19
20 -37 23 -40 14 -12 40 -61 40 -75 0 -8 4 -15 9 -15 5 0 11 -8 15 -17 6 -19
27 -54 37 -63 3 -3 9 -12 12 -20 4 -8 18 -33 32 -55 14 -22 31 -50 37 -62 6
-13 15 -23 20 -23 4 0 8 -5 8 -12 0 -6 11 -26 25 -44 14 -18 25 -36 25 -40 0
-3 16 -29 35 -55 19 -27 35 -54 35 -59 0 -6 3 -10 8 -10 4 0 16 -16 26 -35 11
-19 23 -35 28 -35 4 0 8 -4 8 -9 0 -13 205 -306 237 -339 7 -7 13 -16 13 -20
0 -4 14 -23 30 -42 16 -19 30 -38 30 -41 0 -3 12 -19 26 -35 32 -36 102 -126
130 -168 12 -17 37 -47 55 -67 19 -19 47 -53 63 -75 17 -21 32 -41 35 -44 4
-3 35 -40 70 -83 35 -44 78 -93 95 -110 17 -18 47 -50 65 -72 174 -207 711
-743 891 -889 25 -20 76 -65 114 -99 84 -77 81 -74 136 -118 25 -20 56 -46 69
-58 13 -11 27 -21 31 -21 4 0 28 -20 53 -44 25 -24 69 -61 99 -82 29 -21 59
-44 66 -51 7 -7 17 -13 21 -13 4 0 29 -20 57 -45 27 -24 54 -44 59 -45 6 0 22
-11 37 -25 15 -14 31 -25 36 -25 5 0 21 -11 36 -25 34 -32 222 -165 233 -165
4 0 20 -11 35 -25 15 -14 30 -25 34 -25 4 0 22 -11 40 -25 18 -14 37 -25 43
-25 6 0 11 -4 11 -10 0 -5 4 -10 10 -10 5 0 32 -16 59 -35 26 -19 53 -35 59
-35 6 0 15 -6 19 -13 4 -6 22 -19 38 -27 17 -8 32 -17 35 -20 13 -13 91 -60
99 -60 6 0 14 -6 18 -13 4 -7 24 -21 43 -30 39 -20 73 -39 80 -48 3 -3 25 -15
50 -27 52 -25 119 -63 172 -98 21 -13 42 -24 47 -24 5 0 14 -7 21 -15 7 -8 21
-15 30 -15 10 0 20 -3 22 -7 3 -9 64 -42 213 -116 55 -27 102 -54 103 -58 2
-5 11 -9 19 -9 8 0 36 -11 62 -24 68 -35 286 -136 341 -158 14 -6 32 -14 40
-19 8 -5 22 -12 30 -15 8 -3 24 -9 35 -14 11 -4 45 -19 75 -34 30 -14 61 -26
68 -26 12 0 22 -4 79 -34 17 -9 41 -16 52 -16 12 0 21 -4 21 -10 0 -5 9 -10
19 -10 11 0 22 -4 26 -9 3 -5 20 -13 37 -17 31 -6 40 -10 88 -34 11 -5 26 -10
35 -10 13 0 65 -20 107 -41 10 -5 26 -9 36 -9 17 0 60 -17 104 -41 10 -5 29
-9 43 -9 25 0 31 -2 93 -33 19 -9 46 -17 62 -17 16 0 32 -4 35 -10 3 -5 17
-10 30 -10 13 0 26 -4 29 -9 3 -5 26 -12 51 -15 25 -4 45 -11 45 -17 0 -5 13
-9 29 -9 17 0 33 -4 36 -10 3 -5 19 -10 35 -10 26 0 70 -15 122 -41 10 -5 35
-9 56 -9 21 0 42 -3 45 -6 11 -12 111 -43 136 -44 14 0 38 -4 55 -9 85 -25
144 -41 171 -45 17 -3 53 -10 80 -16 28 -6 79 -16 115 -22 36 -6 67 -14 70
-18 3 -4 28 -10 55 -13 89 -10 173 -24 185 -32 14 -9 103 -23 210 -34 41 -4
82 -10 90 -14 27 -12 260 -40 461 -55 63 -5 121 -12 129 -17 28 -17 389 -27
980 -27 622 0 894 9 943 30 16 7 69 12 120 12 92 0 225 13 307 31 25 5 72 12
105 14 33 3 85 10 115 15 96 16 123 21 196 30 40 5 84 14 99 20 14 5 41 10 60
10 19 0 37 5 40 10 3 6 23 10 44 10 21 0 74 9 117 21 44 12 104 25 134 29 74
11 149 28 163 37 7 4 32 10 57 14 55 9 108 22 180 44 30 10 70 19 88 22 18 3
35 9 38 14 3 5 20 9 37 9 18 1 43 7 57 15 14 8 37 14 52 15 15 0 29 4 32 9 3
5 20 11 38 13 18 3 60 15 93 26 33 11 86 28 117 37 32 9 60 21 64 26 3 5 18 9
34 9 16 0 32 4 35 10 3 5 16 10 28 10 12 0 31 7 41 15 11 8 30 15 43 15 13 0
31 4 41 9 19 10 52 23 102 40 84 30 188 69 206 79 10 5 38 16 62 23 23 7 47
18 53 26 6 7 21 13 33 13 18 0 56 15 148 61 10 5 25 9 33 9 8 0 15 5 15 10 0
6 9 10 21 10 11 0 40 11 65 25 25 14 49 25 55 25 5 0 27 11 49 25 22 14 47 25
55 25 9 0 42 13 73 29 31 17 68 35 82 40 14 6 32 15 40 20 8 5 51 26 95 47 44
22 82 42 83 47 2 4 10 7 17 7 13 0 75 30 85 41 3 3 21 13 40 22 19 10 42 21
50 26 8 5 29 15 45 22 17 8 32 17 35 20 3 4 42 26 88 50 45 23 82 46 82 51 0
4 7 8 16 8 8 0 30 11 48 25 18 14 38 25 45 25 7 0 34 14 59 32 91 61 101 68
107 68 3 0 31 16 61 35 30 19 57 35 60 35 2 0 14 8 24 18 11 10 39 28 63 40
23 11 51 29 62 39 11 10 33 25 49 33 17 8 41 25 54 38 14 12 31 22 38 22 8 0
14 4 14 8 0 4 15 16 32 27 40 22 228 154 246 172 7 7 17 13 20 13 4 0 25 16
47 35 22 19 45 35 52 35 6 0 13 4 15 8 2 4 21 21 43 37 22 17 63 48 91 70 28
22 68 54 89 70 50 38 156 125 173 142 7 6 34 29 60 50 25 21 62 51 80 68 18
16 42 36 54 45 166 123 844 796 1018 1010 25 30 54 64 65 75 11 11 27 30 35
41 8 12 38 46 65 76 28 30 59 67 70 82 11 16 37 47 57 70 21 22 38 45 38 50 0
4 21 31 46 60 26 28 57 67 70 86 13 19 42 58 64 85 101 128 400 556 400 575 0
4 4 10 8 12 9 3 137 200 167 256 11 21 30 51 42 69 13 17 23 34 23 38 0 5 19
38 77 131 7 10 27 48 45 84 18 36 36 67 39 70 4 3 25 39 47 80 21 41 49 93 62
115 19 34 126 246 216 428 13 27 24 55 24 63 0 8 5 14 10 14 6 0 10 7 10 16 0
8 11 35 25 60 14 25 25 51 25 60 0 8 11 32 25 54 14 22 25 44 25 50 0 6 4 18
9 28 9 18 33 72 49 112 5 14 17 43 27 65 9 22 20 49 25 60 4 11 14 36 20 55 7
19 19 49 26 65 7 17 20 50 28 75 30 87 42 120 49 126 4 4 7 16 7 26 0 10 5 26
10 36 11 18 76 196 90 247 4 17 20 68 35 115 15 47 29 96 32 110 2 14 8 34 13
45 23 56 40 113 40 132 0 12 4 24 9 27 5 3 11 20 14 38 3 18 12 58 20 88 41
148 81 316 101 420 3 14 12 50 21 80 8 30 20 82 25 115 5 33 16 89 25 125 8
36 20 97 25 135 5 39 14 90 19 115 10 50 27 161 41 260 5 36 14 99 20 140 17
117 32 273 40 410 4 69 13 188 18 265 22 283 34 584 29 730 -13 424 -27 753
-32 780 -4 17 -10 86 -15 155 -10 140 -25 285 -39 375 -5 33 -15 101 -21 150
-17 134 -40 276 -51 311 -5 17 -9 46 -9 65 0 19 -11 79 -25 134 -14 55 -25
111 -25 124 0 13 -5 42 -11 65 -22 85 -38 153 -49 211 -7 33 -16 71 -21 85 -4
14 -15 57 -24 95 -28 125 -64 254 -76 277 -5 10 -9 27 -9 37 0 11 -4 30 -9 43
-5 13 -17 50 -26 83 -22 76 -83 269 -100 315 -7 19 -20 58 -28 85 -16 52 -52
155 -67 190 -4 11 -20 54 -35 95 -15 41 -33 89 -40 105 -7 17 -20 51 -29 77
-8 26 -25 69 -37 95 -11 26 -26 59 -31 73 -6 14 -14 32 -18 41 -5 9 -25 56
-45 105 -62 151 -173 387 -272 579 -6 11 -17 34 -25 50 -103 200 -175 332
-268 490 -173 294 -317 518 -499 775 -127 180 -179 251 -276 375 -119 153
-157 201 -204 256 -29 35 -62 75 -74 89 -25 31 -130 153 -137 160 -3 3 -41 46
-85 95 -146 164 -178 198 -400 421 -188 188 -297 292 -485 458 -46 42 -182
157 -206 176 -10 8 -60 49 -109 90 -361 303 -913 686 -1350 938 -264 152 -389
220 -605 328 -155 77 -425 204 -435 204 -2 0 -32 13 -67 29 -103 46 -295 126
-413 171 -60 23 -126 47 -145 55 -149 58 -660 224 -785 256 -16 4 -57 15 -90
24 -33 10 -78 22 -100 27 -62 14 -104 24 -185 45 -41 11 -102 25 -135 33 -33
7 -73 16 -90 21 -34 10 -119 28 -185 39 -25 4 -81 15 -125 24 -44 10 -106 21
-137 27 -304 49 -373 60 -458 69 -47 5 -146 17 -220 26 -74 8 -205 20 -290 24
-85 5 -204 13 -265 18 -117 10 -746 22 -805 16z m500 -374 c620 -21 1119 -78
1708 -196 3080 -614 5721 -2634 7133 -5454 551 -1100 896 -2279 1023 -3495 66
-622 73 -1335 20 -1955 -233 -2756 -1572 -5288 -3729 -7055 -1217 -997 -2687
-1713 -4220 -2054 -1053 -235 -2111 -303 -3190 -205 -2035 184 -3978 984
-5560 2289 -508 419 -1053 969 -1463 1478 -1267 1570 -2039 3469 -2221 5462
-32 352 -41 552 -41 955 0 383 8 594 35 910 173 2003 947 3924 2217 5503 1400
1740 3330 2977 5487 3516 731 183 1499 287 2256 304 61 2 142 4 180 5 39 1
203 -3 365 -8z"/>
<path d="M12330 19281 c0 -63 -38 -244 -71 -339 -178 -508 -618 -874 -1154
-959 -123 -19 -391 -13 -505 12 -452 99 -819 386 -1016 792 -72 150 -106 269
-140 491 l-5 33 -95 -51 c-464 -247 -873 -609 -1168 -1033 -297 -427 -485
-902 -566 -1432 -28 -178 -38 -583 -21 -772 33 -349 122 -707 252 -1005 20
-49 35 -88 32 -88 -3 0 -32 25 -66 56 -91 84 -226 187 -388 293 -890 588
-2046 702 -3049 301 -351 -141 -670 -336 -953 -584 l-88 -77 53 -36 c323 -220
542 -565 610 -958 28 -164 21 -399 -15 -555 -68 -284 -189 -503 -392 -705
-208 -209 -452 -340 -745 -402 -93 -19 -386 -25 -493 -10 l-57 8 0 -40 c0 -22
7 -93 15 -158 79 -613 320 -1179 711 -1668 113 -141 358 -386 499 -499 485
-388 1034 -623 1660 -712 64 -9 222 -18 376 -21 l266 -6 -102 -68 c-773 -517
-1291 -1342 -1435 -2284 -28 -178 -38 -583 -21 -772 30 -321 118 -690 223
-935 l20 -47 56 46 c180 147 427 257 665 298 125 21 342 21 467 1 320 -52 593
-196 821 -434 202 -211 331 -467 381 -757 26 -153 21 -398 -10 -540 -38 -166
-108 -338 -196 -475 -28 -45 -32 -56 -20 -63 25 -14 304 -75 414 -91 288 -41
663 -46 920 -11 770 105 1435 440 1970 992 299 309 545 684 696 1066 21 53 41
97 44 97 3 0 25 -48 49 -107 96 -240 254 -519 417 -736 579 -773 1446 -1250
2409 -1328 176 -14 506 -7 671 15 112 15 275 43 281 50 2 1 -22 40 -53 86
-105 158 -179 335 -221 530 -26 121 -25 440 1 560 102 470 413 854 846 1045
180 79 368 116 582 116 293 0 560 -81 807 -245 91 -61 218 -172 279 -246 l51
-61 34 68 c127 253 230 612 284 978 25 174 25 656 0 845 -97 714 -381 1317
-878 1860 -153 168 -437 403 -639 529 -81 51 -83 53 -45 47 219 -31 652 -32
873 -1 540 75 1011 255 1447 553 747 510 1257 1307 1404 2194 20 123 45 338
39 343 -2 2 -35 -4 -73 -13 -105 -24 -440 -23 -555 1 -412 88 -754 330 -966
683 -98 163 -158 333 -190 531 -20 129 -15 374 11 493 44 204 142 423 260 580
81 110 236 259 348 334 102 70 106 54 -48 180 -511 418 -1091 660 -1770 738
-178 20 -569 15 -759 -11 -540 -73 -1049 -267 -1474 -564 -42 -30 -82 -57 -89
-61 -7 -3 1 33 18 81 193 569 227 1215 94 1808 -193 860 -728 1614 -1482 2086
-123 77 -312 179 -332 179 -6 0 -11 -18 -11 -39z m-1417 -3111 c254 -21 491
-91 762 -225 397 -195 616 -395 680 -619 25 -87 16 -266 -17 -361 -54 -150
-171 -349 -342 -580 l-66 -89 0 -1018 0 -1018 1258 0 c1030 0 1269 3 1322 14
189 40 474 202 736 418 l87 72 34 -40 c19 -21 63 -82 99 -135 198 -294 342
-716 399 -1168 26 -200 17 -525 -18 -672 -61 -257 -168 -409 -351 -500 -156
-76 -303 -86 -595 -39 -102 16 -238 34 -301 40 -70 6 -614 10 -1392 10 l-1278
0 0 -925 0 -925 423 0 c519 0 674 13 1254 109 l225 37 24 -55 c160 -361 240
-760 205 -1026 -32 -243 -136 -449 -289 -570 -73 -59 -215 -129 -317 -158
l-80 -22 -2410 -3 c-1782 -2 -2435 0 -2505 8 -358 44 -619 226 -707 494 -23
71 -26 97 -26 216 0 237 61 491 205 850 54 134 208 460 217 460 3 0 36 -36 73
-80 84 -98 183 -181 268 -223 l65 -32 727 -3 728 -3 0 926 0 926 -1312 -3
-1313 -3 -140 -25 c-122 -21 -171 -24 -385 -25 -198 0 -261 3 -330 18 -408 86
-643 289 -740 638 -81 293 -29 683 150 1118 79 192 210 443 302 578 l28 42
132 -64 c313 -148 591 -236 843 -265 57 -6 578 -10 1428 -10 l1338 0 -4 1118
c-3 1093 -4 1119 -24 1213 -58 264 -174 522 -362 807 -97 147 -112 176 -106
199 10 43 187 211 301 286 238 157 539 263 814 286 137 12 153 12 283 1z"/>
</g>
</svg>
